<svg width="283" height="51" viewBox="0 0 283 51" fill="none" xmlns="http://www.w3.org/2000/svg">
<path d="M23.4099 36.008L0.561938 27.32V21.08L23.4099 12.392V18.392L2.81794 25.88V22.52L23.4099 30.008V36.008ZM24.7363 45.8L40.5763 0.583997H47.2483L31.4083 45.8H24.7363ZM48.0932 36.008V30.008L68.6852 22.52V25.88L48.0932 18.392V12.392L70.9412 21.08V27.32L48.0932 36.008ZM88.8756 41.576C86.1876 41.576 83.6116 41.224 81.1476 40.52C78.6836 39.784 76.6996 38.84 75.1956 37.688L77.8356 31.832C79.2756 32.856 80.9716 33.704 82.9236 34.376C84.9076 35.016 86.9076 35.336 88.9236 35.336C90.4596 35.336 91.6916 35.192 92.6196 34.904C93.5796 34.584 94.2836 34.152 94.7316 33.608C95.1796 33.064 95.4036 32.44 95.4036 31.736C95.4036 30.84 95.0516 30.136 94.3476 29.624C93.6436 29.08 92.7156 28.648 91.5636 28.328C90.4116 27.976 89.1316 27.656 87.7236 27.368C86.3476 27.048 84.9556 26.664 83.5476 26.216C82.1716 25.768 80.9076 25.192 79.7556 24.488C78.6036 23.784 77.6596 22.856 76.9236 21.704C76.2196 20.552 75.8676 19.08 75.8676 17.288C75.8676 15.368 76.3796 13.624 77.4036 12.056C78.4596 10.456 80.0276 9.192 82.1076 8.264C84.2196 7.304 86.8596 6.824 90.0276 6.824C92.1396 6.824 94.2196 7.08 96.2676 7.592C98.3156 8.072 100.124 8.808 101.692 9.8L99.2916 15.704C97.7236 14.808 96.1556 14.152 94.5876 13.736C93.0196 13.288 91.4836 13.064 89.9796 13.064C88.4756 13.064 87.2436 13.24 86.2836 13.592C85.3236 13.944 84.6356 14.408 84.2196 14.984C83.8036 15.528 83.5956 16.168 83.5956 16.904C83.5956 17.768 83.9476 18.472 84.6516 19.016C85.3556 19.528 86.2836 19.944 87.4356 20.264C88.5876 20.584 89.8516 20.904 91.2276 21.224C92.6356 21.544 94.0276 21.912 95.4036 22.328C96.8116 22.744 98.0916 23.304 99.2436 24.008C100.396 24.712 101.324 25.64 102.028 26.792C102.764 27.944 103.132 29.4 103.132 31.16C103.132 33.048 102.604 34.776 101.548 36.344C100.492 37.912 98.9076 39.176 96.7956 40.136C94.7156 41.096 92.0756 41.576 88.8756 41.576ZM110.712 50.696C109.368 50.696 108.04 50.488 106.728 50.072C105.416 49.656 104.344 49.08 103.512 48.344L106.248 43.016C106.824 43.528 107.48 43.928 108.216 44.216C108.984 44.504 109.736 44.648 110.472 44.648C111.528 44.648 112.36 44.392 112.968 43.88C113.608 43.4 114.184 42.584 114.696 41.432L116.04 38.264L116.616 37.448L125.88 15.176H133.08L121.416 42.584C120.584 44.664 119.624 46.296 118.536 47.48C117.48 48.664 116.296 49.496 114.984 49.976C113.704 50.456 112.28 50.696 110.712 50.696ZM115.128 42.008L103.608 15.176H111.336L120.264 36.776L115.128 42.008ZM151.832 14.792C153.88 14.792 155.704 15.208 157.304 16.04C158.936 16.84 160.216 18.088 161.144 19.784C162.072 21.448 162.536 23.592 162.536 26.216V41H155.048V27.368C155.048 25.288 154.584 23.752 153.656 22.76C152.76 21.768 151.48 21.272 149.816 21.272C148.632 21.272 147.56 21.528 146.6 22.04C145.672 22.52 144.936 23.272 144.392 24.296C143.88 25.32 143.624 26.632 143.624 28.232V41H136.136V15.176H143.288V22.328L141.944 20.168C142.872 18.44 144.2 17.112 145.928 16.184C147.656 15.256 149.624 14.792 151.832 14.792ZM185.163 41V35.96L184.683 34.856V25.832C184.683 24.232 184.187 22.984 183.195 22.088C182.235 21.192 180.747 20.744 178.731 20.744C177.355 20.744 175.995 20.968 174.651 21.416C173.339 21.832 172.219 22.408 171.291 23.144L168.603 17.912C170.011 16.92 171.707 16.152 173.691 15.608C175.675 15.064 177.691 14.792 179.739 14.792C183.675 14.792 186.731 15.72 188.907 17.576C191.083 19.432 192.171 22.328 192.171 26.264V41H185.163ZM177.291 41.384C175.275 41.384 173.547 41.048 172.107 40.376C170.667 39.672 169.563 38.728 168.795 37.544C168.027 36.36 167.643 35.032 167.643 33.56C167.643 32.024 168.011 30.68 168.747 29.528C169.515 28.376 170.715 27.48 172.347 26.84C173.979 26.168 176.107 25.832 178.731 25.832H185.595V30.2H179.547C177.787 30.2 176.571 30.488 175.899 31.064C175.259 31.64 174.939 32.36 174.939 33.224C174.939 34.184 175.307 34.952 176.043 35.528C176.811 36.072 177.851 36.344 179.163 36.344C180.411 36.344 181.531 36.056 182.523 35.48C183.515 34.872 184.235 33.992 184.683 32.84L185.835 36.296C185.291 37.96 184.299 39.224 182.859 40.088C181.419 40.952 179.563 41.384 177.291 41.384ZM214.212 41.384C212.036 41.384 210.132 40.904 208.5 39.944C206.868 38.984 205.588 37.528 204.66 35.576C203.764 33.592 203.316 31.096 203.316 28.088C203.316 25.048 203.748 22.552 204.612 20.6C205.476 18.648 206.724 17.192 208.356 16.232C209.988 15.272 211.94 14.792 214.212 14.792C216.644 14.792 218.82 15.352 220.74 16.472C222.692 17.56 224.228 19.096 225.348 21.08C226.5 23.064 227.076 25.4 227.076 28.088C227.076 30.808 226.5 33.16 225.348 35.144C224.228 37.128 222.692 38.664 220.74 39.752C218.82 40.84 216.644 41.384 214.212 41.384ZM198.948 50.312V15.176H206.1V20.456L205.956 28.136L206.436 35.768V50.312H198.948ZM212.916 35.24C214.164 35.24 215.268 34.952 216.228 34.376C217.22 33.8 218.004 32.984 218.58 31.928C219.188 30.84 219.492 29.56 219.492 28.088C219.492 26.584 219.188 25.304 218.58 24.248C218.004 23.192 217.22 22.376 216.228 21.8C215.268 21.224 214.164 20.936 212.916 20.936C211.668 20.936 210.548 21.224 209.556 21.8C208.564 22.376 207.78 23.192 207.204 24.248C206.628 25.304 206.34 26.584 206.34 28.088C206.34 29.56 206.628 30.84 207.204 31.928C207.78 32.984 208.564 33.8 209.556 34.376C210.548 34.952 211.668 35.24 212.916 35.24ZM240.777 41.384C238.569 41.384 236.441 41.128 234.393 40.616C232.377 40.072 230.777 39.4 229.593 38.6L232.089 33.224C233.273 33.96 234.665 34.568 236.265 35.048C237.897 35.496 239.497 35.72 241.065 35.72C242.793 35.72 244.009 35.512 244.713 35.096C245.449 34.68 245.817 34.104 245.817 33.368C245.817 32.76 245.529 32.312 244.953 32.024C244.409 31.704 243.673 31.464 242.745 31.304C241.817 31.144 240.793 30.984 239.673 30.824C238.585 30.664 237.481 30.456 236.361 30.2C235.241 29.912 234.217 29.496 233.289 28.952C232.361 28.408 231.609 27.672 231.033 26.744C230.489 25.816 230.217 24.616 230.217 23.144C230.217 21.512 230.681 20.072 231.609 18.824C232.569 17.576 233.945 16.6 235.737 15.896C237.529 15.16 239.673 14.792 242.169 14.792C243.929 14.792 245.721 14.984 247.545 15.368C249.369 15.752 250.889 16.312 252.105 17.048L249.609 22.376C248.361 21.64 247.097 21.144 245.817 20.888C244.569 20.6 243.353 20.456 242.169 20.456C240.505 20.456 239.289 20.68 238.521 21.128C237.753 21.576 237.369 22.152 237.369 22.856C237.369 23.496 237.641 23.976 238.185 24.296C238.761 24.616 239.513 24.872 240.441 25.064C241.369 25.256 242.377 25.432 243.465 25.592C244.585 25.72 245.705 25.928 246.825 26.216C247.945 26.504 248.953 26.92 249.849 27.464C250.777 27.976 251.529 28.696 252.105 29.624C252.681 30.52 252.969 31.704 252.969 33.176C252.969 34.776 252.489 36.2 251.529 37.448C250.569 38.664 249.177 39.624 247.353 40.328C245.561 41.032 243.369 41.384 240.777 41.384ZM270.405 41.384C267.461 41.384 264.869 40.808 262.629 39.656C260.421 38.504 258.709 36.936 257.493 34.952C256.277 32.936 255.669 30.648 255.669 28.088C255.669 25.496 256.261 23.208 257.445 21.224C258.661 19.208 260.309 17.64 262.389 16.52C264.469 15.368 266.821 14.792 269.445 14.792C271.973 14.792 274.245 15.336 276.261 16.424C278.309 17.48 279.925 19.016 281.109 21.032C282.293 23.016 282.885 25.4 282.885 28.184C282.885 28.472 282.869 28.808 282.837 29.192C282.805 29.544 282.773 29.88 282.741 30.2H261.765V25.832H278.805L275.925 27.128C275.925 25.784 275.653 24.616 275.109 23.624C274.565 22.632 273.813 21.864 272.853 21.32C271.893 20.744 270.773 20.456 269.493 20.456C268.213 20.456 267.077 20.744 266.085 21.32C265.125 21.864 264.373 22.648 263.829 23.672C263.285 24.664 263.013 25.848 263.013 27.224V28.376C263.013 29.784 263.317 31.032 263.925 32.12C264.565 33.176 265.445 33.992 266.565 34.568C267.717 35.112 269.061 35.384 270.597 35.384C271.973 35.384 273.173 35.176 274.197 34.76C275.253 34.344 276.213 33.72 277.077 32.888L281.061 37.208C279.877 38.552 278.389 39.592 276.597 40.328C274.805 41.032 272.741 41.384 270.405 41.384Z" fill="#9D3FE7"/>
</svg>
